<svg width="152" height="32" viewBox="0 0 152 32" fill="none" xmlns="http://www.w3.org/2000/svg">
<path d="M25.3127 28.862C18.3848 28.8436 11.4607 28.8252 4.53274 28.8068C3.92536 28.8068 3.31798 28.8068 2.55496 28.8068C2.55496 24.2297 2.55496 19.796 2.55496 15.4064C1.6363 14.7115 0.376006 14.513 0.269714 13.1013C2.01593 12.8623 3.70899 12.9799 5.39447 12.9689C5.42104 13.1233 5.4514 13.2777 5.47797 13.4321C5.27298 14.0755 4.63904 14.4064 4.34674 14.8512C4.34674 18.5056 4.34674 22.0606 4.34674 25.6451C7.10651 25.6451 9.76757 25.6451 12.4932 25.6451C12.4932 21.9172 12.4932 18.3107 12.4932 14.7262C12.0984 14.1086 11.2784 13.6932 11.6581 12.8035C13.3625 12.8035 15.067 12.8035 16.7714 12.8035C20.7953 12.8218 24.8192 12.8513 28.8431 12.8623C32.4304 12.8733 36.0215 12.866 39.7265 12.866C39.3963 14.4321 38.2195 14.8439 37.0047 15.263C37.0047 19.7335 37.0047 24.1304 37.0047 28.862C33.0264 28.862 29.1695 28.862 25.3127 28.862ZM14.2963 15.1968C14.2963 18.7776 14.2963 22.2297 14.2963 25.6819C21.247 25.6819 28.0497 25.6819 35.0004 25.6819C35.0004 21.9614 35.0193 18.3475 34.9814 14.7299C34.9738 14.1858 34.5752 13.7262 34.002 13.4064C33.3111 14.3292 32.5443 15.0461 31.2384 15.0792C29.8642 15.1159 29.1619 14.2005 28.3116 13.3476C27.6093 14.3953 26.8007 15.0424 25.5025 15.0792C24.1283 15.1159 23.464 14.1417 22.5871 13.3476C21.9 14.4284 21.0496 15.0314 19.7742 15.0755C18.4265 15.1233 17.7053 14.2299 16.8018 13.2924C16.3425 14.513 15.3517 14.8586 14.2963 15.1968Z" fill="#DC092E"/>
<path d="M11.9357 2.25583C9.10376 2.25583 6.27185 2.25583 3.53106 2.25583C3.07552 1.64555 3.17802 1.16394 3.3906 0.410278C5.62272 0.410278 7.92316 0.410278 10.2236 0.410278C18.279 0.424984 26.3343 0.436015 34.3897 0.458073C34.9933 0.458073 35.6196 0.333073 36.2156 0.616155C36.4661 1.09776 36.4661 1.56835 36.1207 2.25583C28.1185 2.25583 20.0252 2.25583 11.9357 2.25583Z" fill="#DC092E"/>
<path d="M26.7355 31.5898C18.2664 31.5898 9.79344 31.5898 1.4306 31.5898C0.994048 31.0052 1.10034 30.5604 1.26357 29.8508C9.243 29.8508 17.2756 29.8508 25.3119 29.8508C29.5104 29.8508 33.7052 29.8508 37.7898 29.8508C38.2339 30.4391 38.1238 30.8839 37.972 31.5898C34.2594 31.5898 30.4974 31.5898 26.7355 31.5898Z" fill="#DC092E"/>
<path d="M39.7792 12.3109C37.7748 12.3109 36.04 12.3109 34.1154 12.3109C33.2005 9.2264 32.2895 6.17132 31.3442 2.98389C33.0753 2.98389 34.6924 2.98389 36.5259 2.98389C37.5774 5.99853 38.6555 9.09772 39.7792 12.3109Z" fill="#DC092E"/>
<path d="M22.1119 2.93604C23.7632 2.93604 25.1261 2.93604 26.7204 2.93604C27.2671 6.00215 27.8175 9.08295 28.3907 12.3071C26.4964 12.3071 24.7351 12.3071 22.7117 12.3071C22.5181 9.24471 22.3207 6.17494 22.1119 2.93604Z" fill="#DC092E"/>
<path d="M16.7709 12.4762C15.0361 12.4762 13.3013 12.4762 11.3842 12.4762C11.8322 9.76671 12.2383 7.29985 12.6483 4.83299C12.8913 4.23741 12.7622 3.5389 13.2405 2.93965C14.4059 2.85142 15.6169 2.78525 17.0025 3.01686C16.8734 6.20062 17.291 9.34025 16.7709 12.4762Z" fill="#DC092E"/>
<path d="M0 12.3328C1.11985 9.12698 2.18656 6.06824 3.27225 2.95801C4.93874 2.95801 6.52552 2.95801 8.44635 2.95801C7.50112 6.1822 6.59385 9.26669 5.69417 12.3328C3.73538 12.3328 1.96639 12.3328 0 12.3328Z" fill="#DC092E"/>
<path d="M11.0654 12.8035C11.2476 14.1895 10.2302 14.6527 9.17113 14.9505C7.84628 15.3255 6.72644 14.7299 5.91028 13.3917C5.94065 13.2299 5.97101 13.0645 6.00138 12.9027C7.69065 12.866 9.37993 12.8329 11.0654 12.8035Z" fill="#DC092E"/>
<path d="M6.00448 12.899C5.97418 13.0608 5.94387 13.2262 5.91357 13.388C5.76962 13.4027 5.62187 13.4174 5.47792 13.4321C5.4514 13.2777 5.4249 13.1233 5.39459 12.9689C5.59915 12.9468 5.79992 12.9211 6.00448 12.899Z" fill="#DC092E"/>
<path d="M10.9979 21.3951C10.6525 20.1746 10.6335 19.1562 10.9828 18.1011C12.095 18.6819 12.152 20.4282 10.9979 21.3951Z" fill="#DC092E"/>
<path d="M33.5841 18.0054C31.0597 19.7553 28.5353 21.5016 26.0108 23.2516C25.8894 23.0935 25.7717 22.9354 25.6502 22.7737C28.1708 21.0274 30.6876 19.2774 33.2083 17.5311C33.3297 17.6892 33.455 17.8473 33.5841 18.0054Z" fill="#DC092E"/>
<path d="M24.743 17.2923C22.2262 19.0312 19.7094 20.7738 17.1925 22.5128C17.0825 22.3657 16.9762 22.2187 16.8661 22.0716C19.3867 20.3363 21.9073 18.6011 24.4279 16.8658C24.5304 17.0055 24.6367 17.1489 24.743 17.2923Z" fill="#DC092E"/>
<path d="M26.1813 19.0349C25.9649 20.3584 25.2589 20.6524 24.2073 20.8105C24.3933 19.7333 25.1374 19.465 26.1813 19.0349Z" fill="#DC092E"/>
<path d="M21.2879 22.6083C21.8953 21.7628 22.4381 21.2223 23.3871 21.1525C23.0872 22.2774 22.7076 22.5569 21.2879 22.6083Z" fill="#DC092E"/>
<path d="M20.8255 23.0936C20.4839 24.1193 19.8082 24.4428 18.9427 24.6303C19.1401 23.5825 19.3982 23.3619 20.8255 23.0936Z" fill="#DC092E"/>
<path d="M26.7747 18.7996C27.2075 17.8805 27.849 17.568 28.984 17.2004C28.4526 18.3254 27.9781 18.8437 26.7747 18.7996Z" fill="#DC092E"/>
<path d="M30.6768 16.0387C30.7223 16.8328 30.32 16.9873 29.6443 16.9909C29.5987 16.2042 29.9897 16.0314 30.6768 16.0387Z" fill="#DC092E"/>
<path d="M53.6982 8.20529H58.085V22.9636H67.5897V26.3933H53.6982V8.20529Z" fill="#DC092E"/>
<path d="M84.7175 23.0155V26.3933H70.0408V8.20529H84.3655V11.5831H74.4005V15.5325H83.2011V18.8063H74.4005V23.0155H84.7175Z" fill="#DC092E"/>
<path d="M105.593 8.20529V26.3933H101.991L92.5406 15.3506V26.3933H88.2079V8.20529H91.8365L101.26 19.248V8.20529H105.593Z" fill="#DC092E"/>
<path d="M110.077 8.20529H118.688C120.746 8.20529 122.561 8.58637 124.131 9.34854C125.72 10.0934 126.947 11.15 127.814 12.5185C128.699 13.8869 129.141 15.4805 129.141 17.2993C129.141 19.1181 128.699 20.7117 127.814 22.0802C126.947 23.4486 125.72 24.5139 124.131 25.2761C122.561 26.0209 120.746 26.3933 118.688 26.3933H110.077V8.20529ZM118.472 22.9376C120.367 22.9376 121.875 22.4353 122.994 21.4306C124.131 20.4086 124.7 19.0315 124.7 17.2993C124.7 15.5671 124.131 14.1987 122.994 13.194C121.875 12.172 120.367 11.661 118.472 11.661H114.464V22.9376H118.472Z" fill="#DC092E"/>
<path d="M141.629 26.7051C139.661 26.7051 137.883 26.2981 136.294 25.4839C134.724 24.6698 133.487 23.5525 132.584 22.1321C131.7 20.6944 131.258 19.0835 131.258 17.2993C131.258 15.5151 131.7 13.9129 132.584 12.4925C133.487 11.0547 134.724 9.92882 136.294 9.11469C137.883 8.30056 139.661 7.89349 141.629 7.89349C143.597 7.89349 145.366 8.30056 146.936 9.11469C148.507 9.92882 149.743 11.0547 150.646 12.4925C151.549 13.9129 152 15.5151 152 17.2993C152 19.0835 151.549 20.6944 150.646 22.1321C149.743 23.5525 148.507 24.6698 146.936 25.4839C145.366 26.2981 143.597 26.7051 141.629 26.7051ZM141.629 23.1195C142.748 23.1195 143.759 22.877 144.662 22.392C145.564 21.8896 146.268 21.1967 146.774 20.3133C147.297 19.4299 147.559 18.4252 147.559 17.2993C147.559 16.1734 147.297 15.1687 146.774 14.2853C146.268 13.4019 145.564 12.7177 144.662 12.2326C143.759 11.7303 142.748 11.4791 141.629 11.4791C140.51 11.4791 139.499 11.7303 138.596 12.2326C137.693 12.7177 136.98 13.4019 136.457 14.2853C135.951 15.1687 135.699 16.1734 135.699 17.2993C135.699 18.4252 135.951 19.4299 136.457 20.3133C136.98 21.1967 137.693 21.8896 138.596 22.392C139.499 22.877 140.51 23.1195 141.629 23.1195Z" fill="#DC092E"/>
</svg>
